<svg width="28" height="22" viewBox="0 0 28 22" fill="none" xmlns="http://www.w3.org/2000/svg">
<path d="M27.3332 3.00016V19.0002C27.3332 19.7335 27.0721 20.3613 26.5498 20.8835C26.0276 21.4057 25.3998 21.6668 24.6665 21.6668H3.33317C2.59984 21.6668 1.97206 21.4057 1.44984 20.8835C0.927615 20.3613 0.666504 19.7335 0.666504 19.0002V3.00016C0.666504 2.26683 0.927615 1.63905 1.44984 1.11683C1.97206 0.594607 2.59984 0.333496 3.33317 0.333496H24.6665C25.3998 0.333496 26.0276 0.594607 26.5498 1.11683C27.0721 1.63905 27.3332 2.26683 27.3332 3.00016ZM3.33317 5.66683H24.6665V3.00016H3.33317V5.66683ZM3.33317 11.0002V19.0002H24.6665V11.0002H3.33317Z" fill="white"/>
</svg>
