<svg width="27" height="26" viewBox="0 0 27 26" fill="none" xmlns="http://www.w3.org/2000/svg">
<path fill-rule="evenodd" clip-rule="evenodd" d="M12.8356 0.0346578C12.299 0.13252 11.7567 0.349512 11.3122 0.644197C10.9965 0.85351 10.1379 1.67157 8.31097 3.50336L5.75198 6.06929L6.20869 6.07021C6.79897 6.07136 7.34453 6.20225 7.91464 6.47951C8.34028 6.68651 8.52887 6.8578 10.6624 8.97531L12.953 11.2488H13.2784H13.6038L15.8321 9.03393C17.6557 7.22122 18.1346 6.77791 18.4687 6.59291C19.1663 6.20664 19.4994 6.11566 20.3633 6.07526L21.1428 6.03883L18.4743 3.38155C15.5969 0.516232 15.5067 0.441403 14.5912 0.162501C14.1147 0.0172912 13.2689 -0.0443147 12.8356 0.0346578ZM2.9682 8.8571C1.2085 10.625 0.947084 10.9574 0.683599 11.762C0.547225 12.1786 0.522424 12.362 0.522424 12.955C0.522424 13.548 0.547225 13.7315 0.683599 14.148C0.948547 14.9572 1.20618 15.2847 2.96838 17.0529L4.5928 18.683L5.50726 18.682C6.52885 18.6811 7.04448 18.5912 7.48724 18.3369C7.64165 18.2482 8.73807 17.2103 9.98645 15.971C12.0722 13.9004 12.2333 13.7547 12.5762 13.6279C13.0753 13.4434 13.7329 13.4678 14.1501 13.6862C14.3488 13.7903 15.1112 14.5072 16.5554 15.9481C17.7183 17.1083 18.8069 18.1444 18.9745 18.2506C19.5423 18.6103 19.9149 18.683 21.1923 18.683H22.3308L23.98 17.0225C25.2651 15.7285 25.6838 15.2678 25.8769 14.9354C26.1358 14.4895 26.3781 13.796 26.3781 13.5006C26.3781 13.4056 26.4056 13.3109 26.4391 13.2902C26.4726 13.2694 26.5 13.088 26.5 12.8869C26.5 12.6587 26.4771 12.5354 26.4391 12.5589C26.4037 12.5808 26.3781 12.5211 26.3781 12.4166C26.3781 12.1155 26.1387 11.4254 25.8777 10.9746C25.6843 10.6406 25.2729 10.1881 23.9798 8.88756L22.3288 7.22707H21.1913C19.9117 7.22707 19.4697 7.31463 18.945 7.67196C18.7937 7.77506 17.7025 8.82084 16.5203 9.99592C14.2636 12.2388 14.1214 12.3544 13.5169 12.4376C13.1387 12.4896 12.5565 12.3408 12.222 12.1067C12.0817 12.0084 11.0345 10.9925 9.89505 9.84913C8.56391 8.51336 7.71282 7.70639 7.51442 7.59189C7.03949 7.31774 6.54969 7.22902 5.50616 7.22798L4.59067 7.22707L2.9682 8.8571ZM0.5 12.955C0.5 13.1729 0.51109 13.2619 0.524557 13.1531C0.538085 13.0442 0.538085 12.8659 0.524557 12.757C0.51109 12.6481 0.5 12.7372 0.5 12.955ZM12.9418 14.732C12.8748 14.7689 11.8191 15.7913 10.5958 17.0042C8.52711 19.0552 8.33973 19.2248 7.91464 19.4311C7.34398 19.708 6.79836 19.8387 6.20869 19.8398L5.75198 19.8407L8.31097 22.4035C11.0977 25.1942 11.3984 25.4475 12.2584 25.728C12.9499 25.9535 13.8865 25.9667 14.5566 25.7604C15.5146 25.4655 15.5819 25.4099 18.4737 22.529L21.1416 19.8712L20.3627 19.8348C19.4994 19.7944 19.1662 19.7033 18.4687 19.3171C18.1346 19.1321 17.6557 18.6888 15.8321 16.8761L13.6038 14.6612L13.3338 14.663C13.1852 14.6641 13.0089 14.6951 12.9418 14.732Z" fill="#1B1B1F"/>
</svg>
